<?xml version="1.0" standalone="no"?>
<!DOCTYPE svg PUBLIC "-//W3C//DTD SVG 20010904//EN"
 "http://www.w3.org/TR/2001/REC-SVG-20010904/DTD/svg10.dtd">
<svg version="1.0" xmlns="http://www.w3.org/2000/svg"
 width="273.000000pt" height="238.000000pt" viewBox="0 0 273.000000 238.000000"
 preserveAspectRatio="xMidYMid meet">

<g transform="translate(0.000000,238.000000) scale(0.100000,-0.100000)"
fill="#000000" stroke="none">
<path d="M0 1190 l0 -1190 1365 0 1365 0 0 1190 0 1190 -1365 0 -1365 0 0
-1190z m887 947 c160 -167 273 -351 369 -602 36 -94 38 -108 42 -232 6 -213
-40 -431 -121 -573 -36 -63 -125 -157 -136 -144 -5 5 -40 45 -78 89 -39 44
-111 114 -161 155 l-91 75 -1 698 0 699 38 -30 c21 -17 83 -78 139 -135z
m-381 -113 l64 -36 0 -575 0 -575 22 -18 c13 -11 64 -52 114 -93 90 -74 186
-177 265 -283 56 -76 146 -222 128 -208 -8 6 -52 42 -99 80 -151 120 -372 252
-526 313 -23 9 -33 21 -38 43 -8 39 -8 1388 0 1388 3 0 35 -16 70 -36z m-253
-219 l47 -7 0 -612 c0 -474 3 -616 13 -628 6 -9 68 -41 137 -70 69 -29 169
-79 223 -111 104 -62 276 -188 317 -232 24 -27 23 -26 -49 10 -178 89 -448
178 -636 209 -55 10 -110 19 -122 22 l-23 4 0 716 0 716 23 -5 c12 -3 43 -9
70 -12z m2324 -696 c-3 -391 -7 -712 -9 -714 -2 -2 -68 -15 -147 -29 -163 -30
-415 -110 -568 -180 l-98 -46 50 46 c115 104 356 250 520 314 134 52 121 -26
116 684 l-4 613 59 10 c33 6 65 11 73 12 12 1 13 -102 8 -710z"/>
</g>
</svg>
