<?xml version="1.0" standalone="no"?>
<!DOCTYPE svg PUBLIC "-//W3C//DTD SVG 20010904//EN"
 "http://www.w3.org/TR/2001/REC-SVG-20010904/DTD/svg10.dtd">
<svg version="1.0" xmlns="http://www.w3.org/2000/svg"
 width="300.000000pt" height="299.000000pt" viewBox="0 0 300.000000 299.000000"
 preserveAspectRatio="xMidYMid meet">

<g transform="translate(0.000000,299.000000) scale(0.100000,-0.100000)"
fill="#000000" stroke="none">
<path d="M1450 2977 c-3 -2 -45 -7 -95 -10 -87 -5 -129 -13 -245 -45 -104 -28
-175 -55 -273 -103 -412 -205 -697 -580 -793 -1044 -27 -128 -27 -432 0 -560
40 -192 119 -384 222 -541 37 -56 105 -136 184 -215 187 -189 349 -290 590
-367 178 -57 247 -67 460 -67 181 0 282 11 380 41 278 85 459 187 641 362 237
227 381 496 440 822 18 97 18 402 1 490 -47 231 -118 410 -234 585 -67 101
-238 278 -347 360 -142 107 -405 229 -538 250 -21 3 -54 10 -73 15 -19 5 -61
11 -92 14 -150 13 -223 18 -228 13z m-513 -558 c15 -5 40 -22 56 -37 24 -23
27 -33 27 -86 -1 -38 -7 -73 -19 -94 l-17 -33 32 -34 c39 -41 54 -97 61 -230
7 -115 -6 -193 -42 -246 -31 -47 -103 -82 -172 -83 -62 -1 -75 12 -92 89 -12
54 -23 715 -12 733 16 26 129 40 178 21z m488 -32 c77 -76 98 -220 75 -518
-10 -141 -15 -170 -35 -205 -28 -48 -57 -69 -117 -85 -38 -10 -49 -9 -89 8
-57 25 -92 70 -115 148 -27 87 -28 457 -1 528 28 77 44 103 84 136 33 27 45
31 97 31 56 0 61 -2 101 -43z m415 13 c78 -62 105 -198 89 -460 -12 -208 -15
-233 -33 -268 -21 -40 -69 -79 -114 -92 -52 -14 -58 -13 -113 17 -56 30 -91
89 -109 183 -17 88 -14 394 5 465 34 128 90 185 184 185 44 0 59 -5 91 -30z
m207 8 c4 -7 10 -46 13 -86 l5 -73 52 69 c28 37 61 76 72 86 19 18 22 18 46 2
14 -9 25 -22 25 -30 0 -7 -33 -57 -74 -112 -70 -94 -73 -100 -61 -125 8 -14
41 -95 75 -180 34 -85 70 -172 80 -194 10 -22 26 -63 36 -92 18 -50 18 -52 0
-72 -11 -12 -25 -21 -31 -21 -17 0 -40 37 -66 102 -11 29 -27 67 -34 83 -8 17
-34 77 -58 135 -24 58 -47 112 -50 120 -4 8 -4 -69 -1 -171 7 -201 2 -244 -24
-253 -9 -3 -22 -9 -29 -12 -15 -7 -30 49 -38 136 -10 127 -14 651 -5 676 10
26 52 34 67 12z m226 -950 c20 -10 24 -72 5 -84 -6 -4 -51 -6 -100 -5 l-89 2
3 -64 3 -64 79 1 80 1 9 -32 c15 -52 -1 -63 -95 -63 l-79 0 3 -252 3 -253 80
-5 80 -5 3 -35 c5 -51 -14 -60 -129 -60 -72 0 -100 4 -108 14 -18 21 -20 72
-23 476 -1 201 -5 374 -9 386 -4 11 -3 28 3 38 9 15 24 17 136 15 70 -1 135
-6 145 -11z m-382 -12 c60 -5 69 -11 69 -46 0 -35 -29 -54 -72 -48 l-29 5 2
-321 c3 -500 5 -472 -31 -489 -28 -15 -31 -14 -45 6 -13 18 -15 81 -15 414 l0
392 -47 3 c-42 3 -47 6 -54 31 -4 16 -5 35 -3 42 8 20 77 24 225 11z m-1073
-13 c42 -27 32 2 107 -318 13 -55 28 -124 35 -153 14 -62 30 -77 30 -28 0 39
42 316 64 420 8 38 21 73 28 77 7 5 31 8 54 7 67 -2 67 -2 76 -368 10 -428 10
-474 -2 -478 -6 -2 -17 -10 -25 -19 -38 -38 -51 20 -61 277 -4 113 -7 216 -6
230 1 47 -16 -3 -27 -80 -16 -108 -29 -187 -41 -250 -5 -30 -13 -72 -16 -92
-4 -24 -13 -40 -25 -43 -11 -4 -19 -11 -19 -17 0 -27 -40 29 -54 75 -12 41
-72 284 -99 402 -3 11 -5 -98 -6 -242 l-1 -262 -30 -14 c-24 -13 -31 -13 -40
-2 -25 30 -42 833 -20 876 13 24 42 24 78 2z m707 -7 c18 -29 29 -102 95 -606
6 -41 11 -117 13 -169 2 -94 2 -95 -23 -101 -15 -4 -30 -1 -39 7 -13 13 -60
301 -61 370 0 52 -9 63 -50 63 l-37 0 -8 -57 c-3 -32 -9 -69 -11 -83 -2 -14
-9 -56 -15 -95 -21 -135 -40 -207 -54 -201 -7 2 -18 -1 -24 -7 -8 -8 -15 -6
-25 9 -16 21 -15 39 14 234 10 69 24 163 30 210 6 47 16 110 21 140 5 30 11
75 15 100 3 25 8 52 10 60 3 8 10 39 14 69 12 71 23 82 78 79 32 -1 48 -7 57
-22z"/>
<path d="M848 2268 c2 -35 6 -65 7 -66 6 -7 45 9 60 24 9 9 15 34 15 60 l0 44
-43 0 -43 0 4 -62z"/>
<path d="M852 1886 c2 -118 6 -217 9 -220 12 -12 84 22 104 48 44 60 24 335
-28 371 -12 8 -37 15 -55 15 l-33 0 3 -214z"/>
<path d="M1275 2324 c-43 -46 -57 -121 -57 -304 0 -266 21 -342 95 -348 28 -2
42 3 60 20 32 32 40 102 38 345 -2 220 -14 287 -57 303 -39 15 -53 12 -79 -16z"/>
<path d="M1697 2320 c-38 -45 -57 -146 -57 -306 0 -215 25 -327 76 -340 14 -4
40 -2 57 3 54 15 61 51 61 333 1 213 -1 250 -16 282 -31 64 -81 76 -121 28z"/>
<path d="M1456 1200 c-4 -30 -9 -67 -12 -82 -5 -25 -3 -28 20 -28 25 0 25 2
20 48 -4 26 -10 63 -14 82 -7 34 -7 34 -14 -20z"/>
</g>
</svg>
